<svg version="1.1" xmlns="http://www.w3.org/2000/svg" xmlns:xlink="http://www.w3.org/1999/xlink" width="563.29248046875" height="140"><defs/><g><text fill="#eeeeee" stroke="none" font-family="Arial" font-size="24px" font-style="normal" font-weight="normal" text-decoration="none" x="0" y="0">UNREGISTERED</text><text fill="#eeeeee" stroke="none" font-family="Arial" font-size="24px" font-style="normal" font-weight="normal" text-decoration="none" x="0" y="30">UNREGISTERED</text><text fill="#eeeeee" stroke="none" font-family="Arial" font-size="24px" font-style="normal" font-weight="normal" text-decoration="none" x="0" y="60">UNREGISTERED</text><text fill="#eeeeee" stroke="none" font-family="Arial" font-size="24px" font-style="normal" font-weight="normal" text-decoration="none" x="0" y="90">UNREGISTERED</text><text fill="#eeeeee" stroke="none" font-family="Arial" font-size="24px" font-style="normal" font-weight="normal" text-decoration="none" x="0" y="120">UNREGISTERED</text><text fill="#eeeeee" stroke="none" font-family="Arial" font-size="24px" font-style="normal" font-weight="normal" text-decoration="none" x="200" y="0">UNREGISTERED</text><text fill="#eeeeee" stroke="none" font-family="Arial" font-size="24px" font-style="normal" font-weight="normal" text-decoration="none" x="200" y="30">UNREGISTERED</text><text fill="#eeeeee" stroke="none" font-family="Arial" font-size="24px" font-style="normal" font-weight="normal" text-decoration="none" x="200" y="60">UNREGISTERED</text><text fill="#eeeeee" stroke="none" font-family="Arial" font-size="24px" font-style="normal" font-weight="normal" text-decoration="none" x="200" y="90">UNREGISTERED</text><text fill="#eeeeee" stroke="none" font-family="Arial" font-size="24px" font-style="normal" font-weight="normal" text-decoration="none" x="200" y="120">UNREGISTERED</text><text fill="#eeeeee" stroke="none" font-family="Arial" font-size="24px" font-style="normal" font-weight="normal" text-decoration="none" x="400" y="0">UNREGISTERED</text><text fill="#eeeeee" stroke="none" font-family="Arial" font-size="24px" font-style="normal" font-weight="normal" text-decoration="none" x="400" y="30">UNREGISTERED</text><text fill="#eeeeee" stroke="none" font-family="Arial" font-size="24px" font-style="normal" font-weight="normal" text-decoration="none" x="400" y="60">UNREGISTERED</text><text fill="#eeeeee" stroke="none" font-family="Arial" font-size="24px" font-style="normal" font-weight="normal" text-decoration="none" x="400" y="90">UNREGISTERED</text><text fill="#eeeeee" stroke="none" font-family="Arial" font-size="24px" font-style="normal" font-weight="normal" text-decoration="none" x="400" y="120">UNREGISTERED</text><g transform="translate(-30,-366) scale(1,1)"><rect fill="#C0C0C0" stroke="none" x="47" y="383" width="251.96142578125" height="120" opacity="0.2"/></g><g transform="translate(-30,-366) scale(1,1)"><rect fill="#ffffff" stroke="none" x="40" y="376" width="251.96142578125" height="120"/></g><g transform="translate(-30,-366) scale(1,1)"><path fill="none" stroke="#000000" d="M 40 376 L 291.96142578125 376 L 291.96142578125 496 L 40 496 L 40 376 Z Z" stroke-miterlimit="10"/></g><g transform="translate(-30,-366) scale(1,1)"><path fill="none" stroke="#000000" d="M 40 399 L 291.96142578125 399" stroke-miterlimit="10"/></g><g transform="translate(-30,-366) scale(1,1)"><path fill="none" stroke="#000000" d="M 68.05908203125 399 L 68.05908203125 496" stroke-miterlimit="10"/></g><g transform="translate(-30,-366) scale(1,1)"><path fill="none" stroke="#000000" d="M 209.5380859375 399 L 209.5380859375 496" stroke-miterlimit="10"/></g><g transform="translate(-30,-366) scale(1,1)"><g><path fill="none" stroke="none"/><text fill="#000000" stroke="none" font-family="Arial" font-size="13px" font-style="normal" font-weight="bold" text-decoration="none" x="143.211669921875" y="393.5">Coupon</text></g></g><g transform="translate(-30,-366) scale(1,1)"><g><path fill="none" stroke="none"/><text fill="#000000" stroke="none" font-family="Arial" font-size="13px" font-style="normal" font-weight="normal" text-decoration="none" x="45" y="417">PK</text></g></g><g transform="translate(-30,-366) scale(1,1)"><g><path fill="none" stroke="none"/><text fill="#000000" stroke="none" font-family="Arial" font-size="13px" font-style="normal" font-weight="normal" text-decoration="none" x="73.05908203125" y="417">Id</text></g></g><g transform="translate(-30,-366) scale(1,1)"><g><path fill="none" stroke="none"/><text fill="#000000" stroke="none" font-family="Arial" font-size="13px" font-style="normal" font-weight="normal" text-decoration="none" x="214.5380859375" y="417">UUID</text></g></g><g transform="translate(-30,-366) scale(1,1)"><g><path fill="none" stroke="none"/><text fill="#000000" stroke="none" font-family="Arial" font-size="13px" font-style="normal" font-weight="normal" text-decoration="none" x="45" y="416.5"></text></g></g><g transform="translate(-30,-366) scale(1,1)"><g><path fill="none" stroke="none"/><text fill="#000000" stroke="none" font-family="Arial" font-size="13px" font-style="normal" font-weight="normal" text-decoration="none" x="45" y="432"></text></g></g><g transform="translate(-30,-366) scale(1,1)"><g><path fill="none" stroke="none"/><text fill="#000000" stroke="none" font-family="Arial" font-size="13px" font-style="normal" font-weight="normal" text-decoration="none" x="73.05908203125" y="432">Title</text></g></g><g transform="translate(-30,-366) scale(1,1)"><g><path fill="none" stroke="none"/><text fill="#000000" stroke="none" font-family="Arial" font-size="13px" font-style="normal" font-weight="normal" text-decoration="none" x="214.5380859375" y="432">NVARCHAR</text></g></g><g transform="translate(-30,-366) scale(1,1)"><g><path fill="none" stroke="none"/><text fill="#000000" stroke="none" font-family="Arial" font-size="13px" font-style="normal" font-weight="normal" text-decoration="none" x="45" y="431.5"></text></g></g><g transform="translate(-30,-366) scale(1,1)"><g><path fill="none" stroke="none"/><text fill="#000000" stroke="none" font-family="Arial" font-size="13px" font-style="normal" font-weight="normal" text-decoration="none" x="45" y="447"></text></g></g><g transform="translate(-30,-366) scale(1,1)"><g><path fill="none" stroke="none"/><text fill="#000000" stroke="none" font-family="Arial" font-size="13px" font-style="normal" font-weight="normal" text-decoration="none" x="73.05908203125" y="447">StartDate</text></g></g><g transform="translate(-30,-366) scale(1,1)"><g><path fill="none" stroke="none"/><text fill="#000000" stroke="none" font-family="Arial" font-size="13px" font-style="normal" font-weight="normal" text-decoration="none" x="214.5380859375" y="447">DATETIME</text></g></g><g transform="translate(-30,-366) scale(1,1)"><g><path fill="none" stroke="none"/><text fill="#000000" stroke="none" font-family="Arial" font-size="13px" font-style="normal" font-weight="normal" text-decoration="none" x="45" y="446.5"></text></g></g><g transform="translate(-30,-366) scale(1,1)"><g><path fill="none" stroke="none"/><text fill="#000000" stroke="none" font-family="Arial" font-size="13px" font-style="normal" font-weight="normal" text-decoration="none" x="45" y="462"></text></g></g><g transform="translate(-30,-366) scale(1,1)"><g><path fill="none" stroke="none"/><text fill="#000000" stroke="none" font-family="Arial" font-size="13px" font-style="normal" font-weight="normal" text-decoration="none" x="73.05908203125" y="462">EndDate</text></g></g><g transform="translate(-30,-366) scale(1,1)"><g><path fill="none" stroke="none"/><text fill="#000000" stroke="none" font-family="Arial" font-size="13px" font-style="normal" font-weight="normal" text-decoration="none" x="214.5380859375" y="462">DATETIME</text></g></g><g transform="translate(-30,-366) scale(1,1)"><g><path fill="none" stroke="none"/><text fill="#000000" stroke="none" font-family="Arial" font-size="13px" font-style="normal" font-weight="normal" text-decoration="none" x="45" y="461.5"></text></g></g><g transform="translate(-30,-366) scale(1,1)"><g><path fill="none" stroke="none"/><text fill="#000000" stroke="none" font-family="Arial" font-size="13px" font-style="normal" font-weight="normal" text-decoration="none" x="45" y="477"></text></g></g><g transform="translate(-30,-366) scale(1,1)"><g><path fill="none" stroke="none"/><text fill="#000000" stroke="none" font-family="Arial" font-size="13px" font-style="normal" font-weight="normal" text-decoration="none" x="73.05908203125" y="477">MaxCoupons</text></g></g><g transform="translate(-30,-366) scale(1,1)"><g><path fill="none" stroke="none"/><text fill="#000000" stroke="none" font-family="Arial" font-size="13px" font-style="normal" font-weight="normal" text-decoration="none" x="214.5380859375" y="477">INT</text></g></g><g transform="translate(-30,-366) scale(1,1)"><g><path fill="none" stroke="none"/><text fill="#000000" stroke="none" font-family="Arial" font-size="13px" font-style="normal" font-weight="normal" text-decoration="none" x="45" y="476.5"></text></g></g><g transform="translate(-30,-366) scale(1,1)"><g><path fill="none" stroke="none"/><text fill="#000000" stroke="none" font-family="Arial" font-size="13px" font-style="normal" font-weight="normal" text-decoration="none" x="45" y="492"></text></g></g><g transform="translate(-30,-366) scale(1,1)"><g><path fill="none" stroke="none"/><text fill="#000000" stroke="none" font-family="Arial" font-size="13px" font-style="normal" font-weight="normal" text-decoration="none" x="73.05908203125" y="492">MaxCouponsPerUser</text></g></g><g transform="translate(-30,-366) scale(1,1)"><g><path fill="none" stroke="none"/><text fill="#000000" stroke="none" font-family="Arial" font-size="13px" font-style="normal" font-weight="normal" text-decoration="none" x="214.5380859375" y="492">INT</text></g></g><g transform="translate(-30,-366) scale(1,1)"><g><path fill="none" stroke="none"/><text fill="#000000" stroke="none" font-family="Arial" font-size="13px" font-style="normal" font-weight="normal" text-decoration="none" x="45" y="491.5"></text></g></g><g transform="translate(-30,-366) scale(1,1)"><rect fill="#C0C0C0" stroke="none" x="407" y="407" width="183.29248046875" height="90" opacity="0.2"/></g><g transform="translate(-30,-366) scale(1,1)"><rect fill="#ffffff" stroke="none" x="400" y="400" width="183.29248046875" height="90"/></g><g transform="translate(-30,-366) scale(1,1)"><path fill="none" stroke="#000000" d="M 400 400 L 583.29248046875 400 L 583.29248046875 490 L 400 490 L 400 400 Z Z" stroke-miterlimit="10"/></g><g transform="translate(-30,-366) scale(1,1)"><path fill="none" stroke="#000000" d="M 400 423 L 583.29248046875 423" stroke-miterlimit="10"/></g><g transform="translate(-30,-366) scale(1,1)"><path fill="none" stroke="#000000" d="M 428.05908203125 423 L 428.05908203125 490" stroke-miterlimit="10"/></g><g transform="translate(-30,-366) scale(1,1)"><path fill="none" stroke="#000000" d="M 498.70458984375 423 L 498.70458984375 490" stroke-miterlimit="10"/></g><g transform="translate(-30,-366) scale(1,1)"><g><path fill="none" stroke="none"/><text fill="#000000" stroke="none" font-family="Arial" font-size="13px" font-style="normal" font-weight="bold" text-decoration="none" x="456.59765625" y="417.5">Redemption</text></g></g><g transform="translate(-30,-366) scale(1,1)"><g><path fill="none" stroke="none"/><text fill="#000000" stroke="none" font-family="Arial" font-size="13px" font-style="normal" font-weight="normal" text-decoration="none" x="405" y="441">PK</text></g></g><g transform="translate(-30,-366) scale(1,1)"><g><path fill="none" stroke="none"/><text fill="#000000" stroke="none" font-family="Arial" font-size="13px" font-style="normal" font-weight="normal" text-decoration="none" x="433.05908203125" y="441">Id</text></g></g><g transform="translate(-30,-366) scale(1,1)"><g><path fill="none" stroke="none"/><text fill="#000000" stroke="none" font-family="Arial" font-size="13px" font-style="normal" font-weight="normal" text-decoration="none" x="503.70458984375" y="441">UUID</text></g></g><g transform="translate(-30,-366) scale(1,1)"><g><path fill="none" stroke="none"/><text fill="#000000" stroke="none" font-family="Arial" font-size="13px" font-style="normal" font-weight="normal" text-decoration="none" x="405" y="440.5"></text></g></g><g transform="translate(-30,-366) scale(1,1)"><g><path fill="none" stroke="none"/><text fill="#000000" stroke="none" font-family="Arial" font-size="13px" font-style="normal" font-weight="normal" text-decoration="none" x="405" y="456">FK</text></g></g><g transform="translate(-30,-366) scale(1,1)"><g><path fill="none" stroke="none"/><text fill="#000000" stroke="none" font-family="Arial" font-size="13px" font-style="normal" font-weight="normal" text-decoration="none" x="433.05908203125" y="456">CouponId</text></g></g><g transform="translate(-30,-366) scale(1,1)"><g><path fill="none" stroke="none"/><text fill="#000000" stroke="none" font-family="Arial" font-size="13px" font-style="normal" font-weight="normal" text-decoration="none" x="503.70458984375" y="456">UUID</text></g></g><g transform="translate(-30,-366) scale(1,1)"><g><path fill="none" stroke="none"/><text fill="#000000" stroke="none" font-family="Arial" font-size="13px" font-style="normal" font-weight="normal" text-decoration="none" x="405" y="455.5"></text></g></g><g transform="translate(-30,-366) scale(1,1)"><g><path fill="none" stroke="none"/><text fill="#000000" stroke="none" font-family="Arial" font-size="13px" font-style="normal" font-weight="normal" text-decoration="none" x="405" y="471"></text></g></g><g transform="translate(-30,-366) scale(1,1)"><g><path fill="none" stroke="none"/><text fill="#000000" stroke="none" font-family="Arial" font-size="13px" font-style="normal" font-weight="normal" text-decoration="none" x="433.05908203125" y="471">UserId</text></g></g><g transform="translate(-30,-366) scale(1,1)"><g><path fill="none" stroke="none"/><text fill="#000000" stroke="none" font-family="Arial" font-size="13px" font-style="normal" font-weight="normal" text-decoration="none" x="503.70458984375" y="471">UUID</text></g></g><g transform="translate(-30,-366) scale(1,1)"><g><path fill="none" stroke="none"/><text fill="#000000" stroke="none" font-family="Arial" font-size="13px" font-style="normal" font-weight="normal" text-decoration="none" x="405" y="470.5"></text></g></g><g transform="translate(-30,-366) scale(1,1)"><g><path fill="none" stroke="none"/><text fill="#000000" stroke="none" font-family="Arial" font-size="13px" font-style="normal" font-weight="normal" text-decoration="none" x="405" y="486"></text></g></g><g transform="translate(-30,-366) scale(1,1)"><g><path fill="none" stroke="none"/><text fill="#000000" stroke="none" font-family="Arial" font-size="13px" font-style="normal" font-weight="normal" text-decoration="none" x="433.05908203125" y="486">Date</text></g></g><g transform="translate(-30,-366) scale(1,1)"><g><path fill="none" stroke="none"/><text fill="#000000" stroke="none" font-family="Arial" font-size="13px" font-style="normal" font-weight="normal" text-decoration="none" x="503.70458984375" y="486">TIMESTAMP</text></g></g><g transform="translate(-30,-366) scale(1,1)"><g><path fill="none" stroke="none"/><text fill="#000000" stroke="none" font-family="Arial" font-size="13px" font-style="normal" font-weight="normal" text-decoration="none" x="405" y="485.5"></text></g></g><g transform="translate(-30,-366) scale(1,1)"><path fill="none" stroke="#000000" d="M 292 437 L 400 437" stroke-miterlimit="10"/></g><g transform="translate(-30,-366) scale(1,1)"><path fill="none" stroke="#000000" d="M 386 437 L 400 444" stroke-miterlimit="10"/></g><g transform="translate(-30,-366) scale(1,1)"><path fill="none" stroke="#000000" d="M 386 437 L 400 430" stroke-miterlimit="10"/></g><g transform="translate(-30,-366) scale(1,1)"><path fill="#FFFFFF" stroke="none" d="M 371 437 C 371 433.1340064 374.1340064 430 378 430 C 381.8659936 430 385 433.1340064 385 437 C 385 440.8659936 381.8659936 444 378 444 C 374.1340064 444 371 440.8659936 371 437 Z"/></g><g transform="translate(-30,-366) scale(1,1)"><path fill="none" stroke="#000000" d="M 371 437 C 371 433.1340064 374.1340064 430 378 430 C 381.8659936 430 385 433.1340064 385 437 C 385 440.8659936 381.8659936 444 378 444 C 374.1340064 444 371 440.8659936 371 437 Z" stroke-miterlimit="10"/></g><g transform="translate(-30,-366) scale(1,1)"><path fill="none" stroke="#000000" d="M 299 430 L 299 444" stroke-miterlimit="10"/></g><g transform="translate(-30,-366) scale(1,1)"><path fill="none" stroke="#000000" d="M 306 430 L 306 444" stroke-miterlimit="10"/></g><g transform="translate(-30,-366) scale(1,1)"><g><path fill="none" stroke="none"/><text fill="#000000" stroke="none" font-family="Arial" font-size="13px" font-style="normal" font-weight="normal" text-decoration="none" x="316.5" y="428.5"></text></g></g><g transform="translate(-30,-366) scale(1,1)"><g><path fill="none" stroke="none"/><text fill="#000000" stroke="none" font-family="Arial" font-size="13px" font-style="normal" font-weight="normal" text-decoration="none" x="373.5" y="428.5"></text></g></g></g></svg>